{
  "asset": {
    "generator": "Khronos glTF Blender I/O v1.6.16",
    "version": "2.0"
  },
  "scene": 0,
  "scenes": [
    {
      "name": "Scene",
      "nodes": [
        0
      ]
    }
  ],
  "nodes": [
    {
      "mesh": 0,
      "name": "sphere_gltf"
    }
  ],
  "materials": [
    {
      "doubleSided": true,
      "name": "red_bricks_04",
      "normalTexture": {
        "index": 0
      },
      "pbrMetallicRoughness": {
        "baseColorTexture": {
          "index": 1
        },
        "metallicFactor": 0,
        "metallicRoughnessTexture": {
          "index": 2
        }
      }
    }
  ],
  "meshes": [
    {
      "name": "Sphere.001",
      "primitives": [
        {
          "attributes": {
            "POSITION": 0,
            "NORMAL": 1,
            "TEXCOORD_0": 2
          },
          "indices": 3,
          "material": 0
        }
      ]
    }
  ],
  "textures": [
    {
      "sampler": 0,
      "source": 0
    },
    {
      "sampler": 0,
      "source": 1
    },
    {
      "sampler": 0,
      "source": 2
    }
  ],
  "images": [
    {
      "mimeType": "image/jpeg",
      "name": "red_bricks_04_nor_gl_8k",
      "uri": "textures/red_bricks_04_nor_gl_4k.jpg"
    },
    {
      "mimeType": "image/jpeg",
      "name": "red_bricks_04_diff_8k",
      "uri": "textures/red_bricks_04_diff_4k.jpg"
    },
    {
      "mimeType": "image/jpeg",
      "name": "red_bricks_04_arm_8k",
      "uri": "textures/red_bricks_04_arm_4k.jpg"
    }
  ],
  "accessors": [
    {
      "bufferView": 0,
      "componentType": 5126,
      "count": 53925,
      "max": [
        1.262479305267334,
        1.2704381942749023,
        1.2711145877838135
      ],
      "min": [
        -1.262479543685913,
        -1.2681825160980225,
        -1.2711156606674194
      ],
      "type": "VEC3"
    },
    {
      "bufferView": 1,
      "componentType": 5126,
      "count": 53925,
      "type": "VEC3"
    },
    {
      "bufferView": 2,
      "componentType": 5126,
      "count": 53925,
      "type": "VEC2"
    },
    {
      "bufferView": 3,
      "componentType": 5123,
      "count": 322170,
      "type": "SCALAR"
    }
  ],
  "bufferViews": [
    {
      "buffer": 0,
      "byteLength": 647100,
      "byteOffset": 0
    },
    {
      "buffer": 0,
      "byteLength": 647100,
      "byteOffset": 647100
    },
    {
      "buffer": 0,
      "byteLength": 431400,
      "byteOffset": 1294200
    },
    {
      "buffer": 0,
      "byteLength": 644340,
      "byteOffset": 1725600
    }
  ],
  "samplers": [
    {
      "magFilter": 9729,
      "minFilter": 9987
    }
  ],
  "buffers": [
    {
      "byteLength": 2369940,
      "uri": "red_bricks_04.bin"
    }
  ]
}